#N canvas 0 50 638 628 10;
#X obj 84 10 notein, f 11;
#X floatatom 84 34 5 0 127 0 MIDI_Note - MIDI_note, f 5;
#X obj 84 77 ctlin 0;
#X floatatom 84 101 5 0 127 0 Pitch - pitch, f 5;
#X floatatom 214 101 5 0 127 0 Unison - unison, f 5;
#X obj 214 77 ctlin 1;
#X floatatom 344 101 5 0 127 0 Filter_Freq - filter_freq, f 5;
#X obj 344 77 ctlin 2;
#X floatatom 474 101 5 0 127 0 LFO_Rate - lfo_rate, f 5;
#X obj 474 77 ctlin 3;
#X floatatom 84 151 5 0 127 0 LFO_Amnt - lfo_amnt, f 5;
#X floatatom 214 151 5 0 127 0 Attack - attack, f 5;
#X floatatom 344 151 5 0 127 0 Decay - decay, f 5;
#X floatatom 474 151 5 0 127 0 Sustain - sustain, f 5;
#X obj 84 127 ctlin 4;
#X obj 214 127 ctlin 5;
#X obj 344 127 ctlin 6;
#X obj 474 127 ctlin 7;
#X floatatom 84 201 5 0 127 0 Release - release, f 5;
#X floatatom 214 201 5 0 1 0 Hipass - hip, f 5;
#X floatatom 344 201 5 0 1 0 Lowpass - lop, f 5;
#X floatatom 474 201 5 0 1 0 MIDI_In - MIDI_in, f 5;
#X obj 84 177 ctlin 8;
#X obj 214 177 ctlin 9;
#X obj 344 177 ctlin 10;
#X obj 474 177 ctlin 11;
#X floatatom 84 251 5 0 1 0 Filter_Mod - filter_mod, f 5;
#X floatatom 214 251 5 0 1 0 Pitch_Mod - pitch_mod, f 5;
#X obj 84 227 ctlin 12;
#X obj 214 227 ctlin 13;
#N canvas 654 142 450 300 synth 1;
#N canvas 166 162 741 526 oscillator 0;
#X floatatom 92 4 5 0 127 2 - pitch -, f 5;
#X floatatom 223 6 5 0 127 2 - unison -, f 5;
#X floatatom 148 4 5 0 127 2 - MIDI_note -, f 5;
#X obj 110 81 tgl 15 0 empty MIDI_in empty 17 7 0 10 -262144 -1 -1
0 1;
#N canvas 0 50 450 250 (subpatch) 0;
#X array scale 22 float 3;
#A 0 45 47 48 50 52 53 55 57 59 60 62 64 65 67 69 71 72 74 76 77 79
81;
#X coords 0 81 22 45 200 140 1 0 0;
#X restore 529 152 graph;
#X msg 529 52 \; scale 0 45 47 48 50 52 53 55 57 59 60 62 64 65 67
69 71 72 74 76 77 79 81;
#X obj 529 14 loadbang;
#X obj 92 57 int;
#X obj 92 34 / 5.6;
#X obj 92 195 change;
#X floatatom 92 244 5 0 84 0 - - -, f 5;
#X obj 92 368 mtof;
#X obj 92 393 phasor~;
#X obj 92 420 *~ 2;
#X obj 92 446 -~ 1;
#X floatatom 223 57 5 0 0 0 - - -, f 5;
#X obj 148 368 mtof;
#X obj 148 393 phasor~;
#X obj 148 420 *~ 2;
#X obj 148 446 -~ 1;
#X obj 148 343 +;
#X obj 205 368 mtof;
#X obj 205 393 phasor~;
#X obj 205 420 *~ 2;
#X obj 205 446 -~ 1;
#X obj 205 343 -;
#X floatatom 148 316 5 0 0 0 - - -, f 5;
#X obj 148 297 bng 15 250 50 0 empty empty empty 17 7 0 10 -262144
-1 -1;
#X obj 223 32 / 254;
#X obj 93 511 outlet~;
#X obj 148 482 *~ 0.3;
#X obj 206 481 *~ 0.3;
#X obj 92 219 tabread scale \$1;
#X obj 110 111 - 1;
#X obj 110 137 abs;
#X obj 92 160 *;
#X obj 74 273 +;
#X obj 15 218 r pitchMod;
#X connect 0 0 8 0;
#X connect 1 0 28 0;
#X connect 2 0 10 0;
#X connect 2 0 26 0;
#X connect 3 0 33 0;
#X connect 6 0 5 0;
#X connect 7 0 35 0;
#X connect 8 0 7 0;
#X connect 9 0 32 0;
#X connect 10 0 36 1;
#X connect 11 0 12 0;
#X connect 12 0 13 0;
#X connect 13 0 14 0;
#X connect 14 0 29 0;
#X connect 15 0 20 1;
#X connect 15 0 25 1;
#X connect 15 0 27 0;
#X connect 16 0 17 0;
#X connect 17 0 18 0;
#X connect 18 0 19 0;
#X connect 19 0 30 0;
#X connect 20 0 16 0;
#X connect 21 0 22 0;
#X connect 22 0 23 0;
#X connect 23 0 24 0;
#X connect 24 0 31 0;
#X connect 25 0 21 0;
#X connect 26 0 20 0;
#X connect 26 0 25 0;
#X connect 27 0 26 0;
#X connect 28 0 15 0;
#X connect 30 0 29 0;
#X connect 31 0 29 0;
#X connect 32 0 10 0;
#X connect 33 0 34 0;
#X connect 34 0 35 1;
#X connect 35 0 9 0;
#X connect 36 0 11 0;
#X connect 36 0 26 0;
#X connect 37 0 36 0;
#X restore 26 49 pd oscillator;
#N canvas 167 300 638 424 filter 1;
#X obj 14 14 inlet~;
#X floatatom 97 12 5 0 0 0 - filter_freq -, f 5;
#X obj 231 20 tgl 15 0 empty hip empty 17 7 0 10 -262144 -1 -1 0 1
;
#X obj 261 20 tgl 15 0 empty lop empty 17 7 0 10 -262144 -1 -1 1 1
;
#X obj 14 161 hip~;
#X obj 54 161 lop~;
#X obj 94 161 bp~, f 5;
#X obj 126 114 loadbang;
#X obj 231 98 expr $f1 == $f2;
#X obj 231 127 tgl 15 0 empty empty empty 17 7 0 10 -262144 -1 -1 0
1;
#X obj 231 74 int;
#X obj 261 74 int;
#X obj 245 50 bng 15 250 50 0 empty empty empty 17 7 0 10 -262144 -1
-1;
#X obj 14 224 *~;
#X obj 54 224 *~;
#X obj 94 224 *~;
#X obj 15 269 outlet~;
#X obj 79 86 mtof;
#X obj 97 34 + 12;
#X msg 126 138 6;
#X obj 79 62 +;
#X obj 139 14 r freqMod;
#X connect 0 0 4 0;
#X connect 0 0 5 0;
#X connect 0 0 6 0;
#X connect 1 0 18 0;
#X connect 2 0 10 0;
#X connect 2 0 12 0;
#X connect 2 0 13 1;
#X connect 3 0 11 0;
#X connect 3 0 12 0;
#X connect 3 0 14 1;
#X connect 4 0 13 0;
#X connect 5 0 14 0;
#X connect 6 0 15 0;
#X connect 7 0 19 0;
#X connect 8 0 9 0;
#X connect 9 0 15 1;
#X connect 10 0 8 0;
#X connect 11 0 8 1;
#X connect 12 0 10 0;
#X connect 12 0 11 0;
#X connect 13 0 16 0;
#X connect 14 0 16 0;
#X connect 15 0 16 0;
#X connect 17 0 4 1;
#X connect 17 0 5 1;
#X connect 17 0 6 1;
#X connect 18 0 20 1;
#X connect 19 0 6 2;
#X connect 20 0 17 0;
#X connect 21 0 20 0;
#X restore 25 81 pd filter;
#X obj 25 173 dac~;
#N canvas 804 68 450 375 lfo 1;
#X floatatom 16 17 5 0 0 0 - lfo_rate -, f 5;
#X obj 16 40 / 5;
#X obj 16 101 osc~;
#X obj 52 101 loadbang;
#X obj 16 155 snapshot~;
#X obj 34 189 tgl 15 0 empty filter_mod empty 17 7 0 10 -262144 -1
-1 0 1;
#X obj 114 189 tgl 15 0 empty pitch_mod empty 17 7 0 10 -262144 -1
-1 0 1;
#X obj 97 78 bng 15 250 50 0 empty empty empty 17 7 0 10 -262144 -1
-1;
#X obj 16 219 *;
#X obj 96 218 *;
#X obj 16 327 s freqMod;
#X obj 96 327 s pitchMod;
#X obj 52 130 metro 10;
#X obj 96 292 *;
#X floatatom 114 244 5 0 0 0 - lfo_amnt -, f 5;
#X obj 114 266 / 127;
#X obj 16 287 *;
#X obj 34 264 / 2;
#X connect 0 0 1 0;
#X connect 1 0 2 0;
#X connect 2 0 4 0;
#X connect 3 0 12 0;
#X connect 4 0 8 0;
#X connect 4 0 9 0;
#X connect 5 0 8 1;
#X connect 6 0 9 1;
#X connect 7 0 12 0;
#X connect 8 0 16 0;
#X connect 9 0 13 0;
#X connect 12 0 4 0;
#X connect 13 0 11 0;
#X connect 14 0 15 0;
#X connect 14 0 17 0;
#X connect 15 0 13 1;
#X connect 16 0 10 0;
#X connect 17 0 16 1;
#X restore 161 135 pd lfo;
#X connect 0 0 1 0;
#X connect 1 0 2 0;
#X connect 1 0 2 1;
#X restore 343 226 pd synth;
#X connect 0 0 1 0;
#X connect 2 0 3 0;
#X connect 5 0 4 0;
#X connect 7 0 6 0;
#X connect 9 0 8 0;
#X connect 14 0 10 0;
#X connect 15 0 11 0;
#X connect 16 0 12 0;
#X connect 17 0 13 0;
#X connect 22 0 18 0;
#X connect 23 0 19 0;
#X connect 24 0 20 0;
#X connect 25 0 21 0;
#X connect 28 0 26 0;
#X connect 29 0 27 0;
